<?xml version="1.0" encoding="utf-8"?>
<!-- Generator: Adobe Illustrator 16.0.0, SVG Export Plug-In . SVG Version: 6.00 Build 0)  -->
<!DOCTYPE svg PUBLIC "-//W3C//DTD SVG 1.1//EN" "http://www.w3.org/Graphics/SVG/1.1/DTD/svg11.dtd">
<svg version="1.1" id="Layer_1" xmlns="http://www.w3.org/2000/svg" xmlns:xlink="http://www.w3.org/1999/xlink" x="0px" y="0px"
	 width="99.441px" height="99.439px" viewBox="0 0 99.441 99.439" enable-background="new 0 0 99.441 99.439" xml:space="preserve">
<g id="twitter" display="none">
	<path display="inline" fill="#BCBCBC" d="M90.066,23.566c-2.957,1.312-6.135,2.197-9.471,2.597c3.403-2.04,6.02-5.274,7.25-9.125
		c-3.188,1.891-6.716,3.263-10.474,4.002c-3.008-3.204-7.295-5.208-12.037-5.208c-9.108,0-16.494,7.385-16.494,16.493
		c0,1.291,0.146,2.55,0.429,3.758C35.562,35.394,23.41,28.829,15.275,18.85c-1.418,2.437-2.232,5.27-2.232,8.291
		c0,5.724,2.91,10.771,7.336,13.729c-2.7-0.086-5.244-0.829-7.469-2.064c-0.002,0.07-0.002,0.139-0.002,0.208
		c0,7.99,5.687,14.656,13.23,16.172c-1.386,0.375-2.843,0.578-4.347,0.578c-1.062,0-2.096-0.104-3.104-0.297
		c2.1,6.553,8.19,11.322,15.406,11.453c-5.646,4.426-12.755,7.061-20.482,7.061c-1.33,0-2.643-0.078-3.934-0.229
		c7.299,4.678,15.969,7.408,25.28,7.408c30.334,0,46.926-25.132,46.926-46.925c0-0.715-0.018-1.427-0.049-2.135
		C85.061,29.777,87.855,26.872,90.066,23.566z"/>
</g>
<g id="linkedin">
	<path fill="#FFFFFF" d="M22.61,94.878V31.644H1.595v63.234H22.61L22.61,94.878z M12.104,23.016c7.328,0,11.89-4.859,11.89-10.928
		c-0.136-6.204-4.562-10.926-11.75-10.926c-7.192,0-11.89,4.722-11.89,10.926c0,6.068,4.559,10.928,11.613,10.928H12.104
		L12.104,23.016z"/>
	<path fill="#FFFFFF" d="M34.244,94.878H55.26V59.565c0-1.89,0.136-3.779,0.692-5.128c1.519-3.774,4.978-7.689,10.781-7.689
		c7.605,0,10.648,5.804,10.648,14.304v33.828h21.017V58.618c0-19.419-10.37-28.456-24.196-28.456
		c-11.34,0-16.314,6.339-19.082,10.653h0.14v-9.171H34.244C34.519,37.575,34.244,94.878,34.244,94.878L34.244,94.878z"/>
</g>
<g id="facebook" display="none">
	<path display="inline" fill="#BCBCBC" d="M38.731,99.853V53.049H26.355V36.196h12.376c0,0,0-6.903,0-14.392
		c0-11.312,7.309-21.697,24.152-21.697c6.822,0,11.864,0.655,11.864,0.655l-0.396,15.735c0,0-5.146-0.05-10.756-0.05
		c-6.075,0-7.047,2.8-7.047,7.444c0,3.673,0-7.83,0,12.303h18.283l-0.795,16.854H56.551v46.804H38.731z"/>
</g>
<g id="yelp" display="none">
	<g display="inline">
		<path fill="#BCBCBC" d="M59.079,63.383c-1.67,1.684-0.26,4.746-0.26,4.746l12.563,20.979c0,0,2.064,2.765,3.854,2.765
			c1.793,0,3.566-1.472,3.566-1.472l9.936-14.198c0,0,1-1.795,1.021-3.363c0.037-2.23-3.327-2.846-3.327-2.846l-23.517-7.55
			C62.917,62.446,60.61,61.833,59.079,63.383z"/>
		<path fill="#BCBCBC" d="M57.888,52.807c1.198,2.041,4.521,1.447,4.521,1.447l23.463-6.859c0,0,3.197-1.299,3.654-3.034
			c0.449-1.732-0.529-3.826-0.529-3.826L77.786,27.327c0,0-0.973-1.671-2.988-1.838c-2.223-0.19-3.594,2.501-3.594,2.501
			L57.95,48.855C57.95,48.855,56.774,50.934,57.888,52.807z"/>
		<path fill="#BCBCBC" d="M46.798,44.673c2.765-0.681,3.203-4.69,3.203-4.69L49.816,6.573c0,0-0.418-4.122-2.271-5.236
			c-2.905-1.763-3.766-0.844-4.598-0.72L23.466,7.855c0,0-1.906,0.628-2.899,2.223c-1.418,2.257,1.442,5.56,1.442,5.56
			l20.248,27.598C42.256,43.235,44.254,45.303,46.798,44.673z"/>
		<path fill="#BCBCBC" d="M41.988,58.194c0.069-2.575-3.093-4.125-3.093-4.125l-20.94-10.577c0,0-3.101-1.279-4.607-0.389
			c-1.153,0.683-2.176,1.916-2.275,3.008L9.706,62.899c0,0-0.204,2.906,0.547,4.23c1.069,1.879,4.584,0.57,4.584,0.57l24.443-5.402
			C40.232,61.659,41.899,61.602,41.988,58.194z"/>
		<path fill="#BCBCBC" d="M48.069,67.256c-2.101-1.08-4.609,1.15-4.609,1.15l-16.37,18.02c0,0-2.041,2.758-1.523,4.449
			c0.488,1.584,1.3,2.375,2.445,2.93l16.438,5.189c0,0,1.994,0.416,3.503-0.023c2.143-0.621,1.745-3.977,1.745-3.977L50.071,70.6
			C50.071,70.6,49.989,68.249,48.069,67.256z"/>
	</g>
</g>
<g id="lastfm" display="none">
	<path display="inline" fill="#BCBCBC" d="M43.663,69.831l-3.637-9.888c0,0-5.911,6.597-14.774,6.597
		c-7.839,0-13.406-6.82-13.406-17.731c0-13.977,7.044-18.979,13.978-18.979c9.996,0,13.18,6.479,15.91,14.772l3.639,11.363
		c3.632,11.024,10.451,19.888,30.11,19.888c14.092,0,23.638-4.315,23.638-15.682c0-9.205-5.229-13.977-14.999-16.249l-7.272-1.592
		c-5.002-1.138-6.479-3.182-6.479-6.591c0-3.864,3.068-6.136,8.067-6.136c5.456,0,8.41,2.045,8.864,6.932l11.365-1.366
		c-0.913-10.227-7.956-14.43-19.549-14.43c-10.228,0-20.229,3.861-20.229,16.251c0,7.727,3.753,12.61,13.181,14.888l7.728,1.813
		c5.801,1.366,7.729,3.753,7.729,7.047c0,4.205-4.092,5.907-11.821,5.907c-11.474,0-16.246-6.021-18.977-14.315l-3.748-11.362
		C48.209,26.195,40.595,20.74,25.479,20.74c-16.706,0-25.568,10.566-25.568,28.521c0,17.279,8.863,26.592,24.772,26.592
		C37.524,75.853,43.663,69.831,43.663,69.831L43.663,69.831z"/>
</g>
<g id="tumblr" display="none">
	<path display="inline" fill="#BCBCBC" d="M54.139,0.441v24.773h23.256v15.385H54.139V65.73c0,5.68,0.299,9.325,0.903,10.942
		c0.599,1.611,1.722,2.9,3.355,3.863c2.171,1.299,4.646,1.951,7.438,1.951c4.959,0,9.896-1.614,14.807-4.844V93.1
		c-4.188,1.973-7.979,3.36-11.375,4.153c-3.394,0.793-7.065,1.189-11.013,1.189c-4.477,0-8.438-0.563-11.881-1.694
		c-3.441-1.133-6.376-2.746-8.81-4.838c-2.434-2.096-4.117-4.323-5.057-6.685c-0.938-2.356-1.409-5.776-1.409-10.253V40.599h-10.83
		v-13.87c3.848-1.251,7.147-3.042,9.89-5.378c2.75-2.332,4.949-5.139,6.61-8.416c1.66-3.27,2.801-7.435,3.43-12.493L54.139,0.441
		L54.139,0.441z"/>
</g>
<g id="pinterest" display="none">
	<path display="inline" fill="#BCBCBC" d="M50.991-0.056c-27.168,0-40.869,19.479-40.869,35.722c0,9.834,3.725,18.585,11.713,21.843
		c1.31,0.535,2.479,0.018,2.858-1.432c0.268-1,0.889-3.535,1.168-4.589c0.385-1.434,0.236-1.937-0.823-3.188
		c-2.3-2.715-3.771-6.231-3.771-11.211c0-14.451,10.808-27.388,28.148-27.388c15.36,0,23.795,9.382,23.795,21.911
		c0,16.488-7.297,30.404-18.127,30.404c-5.983,0-10.465-4.947-9.026-11.014c1.719-7.245,5.05-15.062,5.05-20.292
		c0-4.68-2.515-8.583-7.716-8.583c-6.114,0-11.026,6.326-11.026,14.8c0,5.396,1.823,9.049,1.823,9.049s-6.258,26.516-7.354,31.156
		c-2.185,9.25-0.331,20.59-0.172,21.732c0.092,0.68,0.964,0.838,1.36,0.329c0.562-0.739,7.848-9.729,10.325-18.715
		c0.698-2.545,4.022-15.719,4.022-15.719c1.987,3.791,7.791,7.127,13.965,7.127c18.383,0,30.855-16.758,30.855-39.187
		C87.192,15.738,72.825-0.056,50.991-0.056z"/>
</g>
<g id="flickr" display="none">
	<circle display="inline" fill="#BCBCBC" cx="22.285" cy="48.984" r="22.19"/>
	<circle display="inline" fill="#BCBCBC" cx="76.97" cy="48.984" r="22.191"/>
</g>
<g id="vevo" display="none">
	<polygon display="inline" fill="#BCBCBC" points="0.437,15.079 24.732,15.079 50.283,65.543 75.717,15.079 99.004,15.079 
		63.502,81.957 37.971,81.957 	"/>
</g>
<g id="wordpress" display="none">
	<g display="inline">
		<path fill="#BCBCBC" d="M9.755,49.754c0,15.827,9.2,29.504,22.538,35.983L13.217,33.481C11.001,38.454,9.755,43.956,9.755,49.754z
			"/>
		<path fill="#BCBCBC" d="M76.736,47.737c0-4.943-1.777-8.365-3.3-11.027c-2.023-3.295-3.927-6.083-3.927-9.376
			c0-3.677,2.786-7.1,6.716-7.1c0.179,0,0.345,0.021,0.516,0.032C69.63,13.748,60.148,9.769,49.742,9.769
			c-13.971,0-26.26,7.167-33.408,18.021c0.938,0.032,1.82,0.05,2.571,0.05c4.185,0,10.657-0.507,10.657-0.507
			c2.154-0.128,2.408,3.037,0.257,3.293c0,0-2.166,0.254-4.577,0.379l14.562,43.313l8.753-26.243l-6.229-17.07
			c-2.155-0.125-4.196-0.379-4.196-0.379c-2.154-0.126-1.899-3.421,0.254-3.293c0,0,6.602,0.507,10.533,0.507
			c4.181,0,10.654-0.507,10.654-0.507c2.154-0.128,2.411,3.037,0.257,3.293c0,0-2.169,0.254-4.574,0.379l14.45,42.985l3.987-13.327
			C75.418,55.131,76.736,51.158,76.736,47.737z"/>
		<path fill="#BCBCBC" d="M50.443,53.25L38.445,88.113c3.583,1.054,7.371,1.63,11.297,1.63c4.656,0,9.119-0.805,13.277-2.268
			c-0.107-0.172-0.204-0.354-0.286-0.552L50.443,53.25z"/>
		<path fill="#BCBCBC" d="M49.742,0.004c-27.433,0-49.75,22.316-49.75,49.75s22.318,49.751,49.75,49.751s49.75-22.317,49.75-49.751
			S77.174,0.004,49.742,0.004z M49.742,94.227c-24.525,0-44.473-19.951-44.473-44.473c0-24.524,19.947-44.474,44.473-44.474
			c24.521,0,44.47,19.949,44.47,44.474C94.212,74.276,74.264,94.227,49.742,94.227z"/>
		<path fill="#BCBCBC" d="M84.83,30.57c0.171,1.273,0.268,2.639,0.268,4.11c0,4.057-0.758,8.62-3.039,14.325L69.844,84.314
			c11.89-6.931,19.884-19.81,19.884-34.56C89.727,42.802,87.95,36.265,84.83,30.57z"/>
	</g>
</g>
<g id="bebo" display="none">
	<path display="inline" fill="#BCBCBC" d="M98.683,41.33l-0.828-1.725l-1.392-1.092c-1.821-1.425-11.032,0.099-13.52-2.156
		c-1.756-1.622-2.021-4.537-2.551-8.479c-0.994-7.658-1.621-8.052-2.814-10.637C73.239,8.031,61.474,1.105,53.392,0.146H31.488
		c-17.229,0-31.312,14.113-31.312,31.344v36.547c0,17.194,14.082,31.276,31.312,31.276H67.47c17.229,0,31.213-14.082,31.313-31.276
		l0.199-25.314L98.683,41.33z M31.885,25.756h17.362c3.314,0,5.998,2.685,5.998,5.966c0,3.279-2.684,5.998-5.998,5.998H31.885
		c-3.312,0-5.994-2.719-5.994-5.998C25.89,28.44,28.574,25.756,31.885,25.756z M67.171,73.536H31.885
		c-3.312,0-5.994-2.718-5.994-5.966c0-3.278,2.684-5.963,5.994-5.963h35.286c3.283,0,5.968,2.685,5.968,5.963
		C73.138,70.819,70.454,73.536,67.171,73.536z"/>
</g>
<g id="instagram" display="none">
	<path display="inline" fill="#BCBCBC" d="M87.688,42.122h-8.593c0.627,2.431,0.995,4.97,0.995,7.597
		c0,16.776-13.598,30.371-30.37,30.371c-16.775,0-30.374-13.595-30.374-30.371c0-2.627,0.371-5.166,0.999-7.597h-8.595V83.89
		c0,2.091,1.696,3.793,3.8,3.793h68.337c2.1,0,3.8-1.702,3.8-3.793L87.688,42.122L87.688,42.122z M87.688,15.546
		c0-2.095-1.7-3.797-3.8-3.797H72.502c-2.097,0-3.797,1.702-3.797,3.797v11.393c0,2.094,1.7,3.796,3.797,3.796h11.388
		c2.1,0,3.8-1.703,3.8-3.796L87.688,15.546L87.688,15.546z M49.721,30.735c-10.487,0-18.985,8.498-18.985,18.983
		c0,10.48,8.499,18.982,18.985,18.982c10.482,0,18.983-8.502,18.983-18.982C68.705,39.233,60.204,30.735,49.721,30.735
		 M87.688,99.077H11.753c-6.291,0-11.39-5.102-11.39-11.396V11.75c0-6.29,5.099-11.388,11.39-11.388h75.937
		c6.292,0,11.39,5.098,11.39,11.388v75.933C99.078,93.976,93.98,99.077,87.688,99.077"/>
</g>
<g id="googleplus" display="none">
	<g display="inline">
		<path fill="#BCBCBC" d="M43.123,55.361c-2.296-1.624-6.688-5.579-6.688-7.904c0-2.724,0.779-4.064,4.878-7.27
			c4.206-3.284,7.179-7.764,7.179-13.133c0-6.394-2.849-12.47-8.195-14.543h8.062l5.687-4.146c0,0-19.06,0-25.412,0
			c-11.394,0-22.116,8.511-22.116,18.512c0,10.215,7.767,18.401,19.358,18.401c0.806,0,1.586-0.044,2.354-0.101
			c-0.755,1.442-1.291,3.048-1.291,4.733c0,2.84,1.529,5.136,3.458,7.014c-1.46,0-2.865,0.037-4.404,0.037
			c-14.111,0-24.97,8.986-24.97,18.306c0,9.178,11.904,14.919,26.017,14.919c16.085,0,24.974-9.128,24.974-18.309
			C52.011,64.517,49.84,60.11,43.123,55.361z M29.547,42.63c-6.548-0.197-12.766-7.326-13.897-15.921
			c-1.13-8.6,3.259-15.179,9.807-14.984c6.545,0.197,12.769,7.098,13.898,15.692C40.485,36.015,36.092,42.824,29.547,42.63z
			 M26.985,86.126c-9.754,0-16.799-6.174-16.799-13.591c0-7.271,8.738-13.318,18.494-13.216c2.276,0.023,4.395,0.392,6.322,1.016
			c5.293,3.683,9.094,5.762,10.164,9.96c0.201,0.85,0.313,1.726,0.313,2.619C45.479,80.331,40.695,86.126,26.985,86.126z"/>
		<polygon fill="#BCBCBC" points="98.2,28.578 81.614,28.578 81.614,45.165 77.988,45.165 77.988,28.578 60.882,28.578 
			60.882,24.432 77.988,24.432 77.988,8.365 81.614,8.365 81.614,24.432 98.2,24.432 		"/>
	</g>
</g>
<g id="foursquare" display="none">
	<g display="inline">
		<path fill="#BCBCBC" d="M35.23,68.803l-4.396-13.561h37.771l-4.771,13.909c0,0-0.265,1.197-1.848,1.197H37.34
			C35.435,70.35,35.23,68.803,35.23,68.803 M74.353,45.906c-0.647,0-1.302-0.11-1.951-0.434l-3.255,8.353H30.294l-3.258-8.353
			c-0.646,0.322-1.302,0.434-1.944,0.434c-2.501,0-4.562-2.065-4.562-4.558c0-2.496,2.062-4.556,4.562-4.556
			c2.49,0,4.556,2.06,4.556,4.556c0,1.195-0.543,2.389-1.303,3.146c6.076,3.689,16.601,1.846,20.831-6.402
			c-2.281-0.212-4.013-2.167-4.013-4.45c0-2.495,2.061-4.552,4.559-4.552c2.489,0,4.559,2.057,4.559,4.552
			c0,2.282-1.736,4.238-4.016,4.45c4.229,8.248,14.752,10.092,20.838,6.402c-0.77-0.757-1.304-1.949-1.304-3.146
			c0-2.496,2.058-4.556,4.554-4.556c2.495,0,4.56,2.06,4.56,4.556C78.912,43.841,76.848,45.906,74.353,45.906"/>
		<path fill="#BCBCBC" d="M49.719,9.507c-22.174,0-40.211,18.043-40.211,40.216s18.038,40.211,40.211,40.211
			c22.175,0,40.212-18.038,40.212-40.211S71.894,9.507,49.719,9.507 M49.719,98.794c-27.061,0-49.07-22.018-49.07-49.071
			c0-27.062,22.011-49.078,49.07-49.078S98.793,22.66,98.793,49.723C98.793,76.778,76.778,98.794,49.719,98.794"/>
	</g>
</g>
<path id="dribbble" display="none" fill="#BCBCBC" d="M96.965,39.965c-0.635-3.113-1.58-6.176-2.812-9.106
	c-1.209-2.872-2.701-5.645-4.445-8.238c-1.723-2.562-3.703-4.973-5.879-7.164c-2.178-2.191-4.576-4.184-7.129-5.915
	c-2.578-1.752-5.336-3.258-8.195-4.476c-2.918-1.238-5.969-2.193-9.071-2.831c-6.355-1.308-13.067-1.308-19.424,0
	c-3.102,0.638-6.152,1.592-9.068,2.831c-2.861,1.217-5.619,2.724-8.194,4.474c-2.552,1.73-4.951,3.722-7.13,5.914
	c-2.179,2.193-4.158,4.604-5.88,7.167c-1.741,2.591-3.236,5.361-4.444,8.235c-1.232,2.933-2.18,5.996-2.812,9.108
	c-0.648,3.191-0.979,6.472-0.979,9.751s0.331,6.561,0.979,9.752c0.633,3.109,1.58,6.176,2.812,9.113
	c1.211,2.871,2.706,5.646,4.444,8.231c1.721,2.562,3.698,4.974,5.88,7.166c2.181,2.193,4.58,4.185,7.129,5.916
	c2.582,1.752,5.338,3.256,8.195,4.474c2.912,1.239,5.964,2.19,9.067,2.827c3.179,0.656,6.446,0.988,9.714,0.988
	c3.269,0,6.536-0.332,9.71-0.988c3.104-0.637,6.155-1.588,9.071-2.827c2.855-1.218,5.613-2.722,8.195-4.474
	c2.553-1.733,4.951-3.727,7.129-5.916c2.182-2.192,4.158-4.604,5.879-7.164c1.74-2.594,3.236-5.364,4.445-8.233
	c1.231-2.938,2.178-5.998,2.812-9.113c0.648-3.189,0.979-6.469,0.979-9.752C97.943,46.437,97.613,43.157,96.965,39.965z
	 M41.68,10.357c2.63-0.54,5.335-0.815,8.041-0.815c2.705,0,5.409,0.275,8.038,0.815c2.564,0.527,5.087,1.315,7.496,2.342
	c2.367,1.006,4.648,2.251,6.783,3.7c1.418,0.964,2.773,2.031,4.062,3.171c-1.416,1.906-7.545,9.268-20.947,14.292
	c-6.221-11.428-12.989-20.755-14.801-23.195C40.793,10.558,41.235,10.45,41.68,10.357z M12.934,34.07
	c1.003-2.381,2.24-4.677,3.686-6.826c1.427-2.124,3.066-4.125,4.875-5.941c1.807-1.818,3.797-3.465,5.911-4.902
	c1.643-1.117,3.377-2.109,5.169-2.971c1.791,2.456,8.432,11.755,14.693,22.884c-17.268,4.584-32.51,4.964-36.588,4.978
	C11.201,38.826,11.957,36.397,12.934,34.07z M19.658,76.138c-1.093-1.258-2.116-2.572-3.039-3.947
	c-1.443-2.145-2.682-4.444-3.685-6.828c-1.024-2.43-1.808-4.969-2.332-7.547c-0.537-2.647-0.812-5.373-0.812-8.1
	c0-0.438,0.019-0.875,0.033-1.312c4.396,0.02,22.274-0.269,40.816-5.815c1.168,2.285,2.282,4.605,3.308,6.923
	c-0.539,0.153-1.074,0.314-1.606,0.486C32.888,56.283,21.924,72.492,19.658,76.138z M65.256,86.736
	c-2.407,1.025-4.93,1.816-7.496,2.345c-5.253,1.082-10.823,1.082-16.079,0c-2.565-0.527-5.086-1.318-7.495-2.345
	c-2.363-1.002-4.646-2.25-6.78-3.7c-0.884-0.599-1.741-1.244-2.576-1.916c1.731-3.23,10.317-17.349,31.623-24.771
	c0.092-0.033,0.182-0.057,0.271-0.09c5.487,14.27,7.891,26.316,8.614,30.443C65.314,86.712,65.283,86.726,65.256,86.736z
	 M88.838,57.816c-0.522,2.578-1.309,5.117-2.33,7.547c-1.002,2.384-2.239,4.681-3.686,6.828c-1.426,2.121-3.066,4.123-4.875,5.943
	c-1.764,1.771-3.697,3.381-5.754,4.791c-0.592-3.348-2.812-14.744-7.836-28.555c11.817-1.892,22.213,0.828,24.807,1.598
	C89.068,56.587,88.963,57.203,88.838,57.816z M61.873,47.942c-0.285-0.698-0.576-1.399-0.877-2.104
	c-0.85-1.99-1.758-3.966-2.709-5.91c14.021-5.724,20.783-13.631,22.34-15.643c0.777,0.956,1.513,1.94,2.195,2.959
	c1.447,2.15,2.688,4.447,3.686,6.826c1.021,2.43,1.808,4.971,2.33,7.55c0.502,2.463,0.765,4.992,0.8,7.528
	C86.744,48.574,74.391,46.367,61.873,47.942z"/>
<path id="klout" display="none" fill="#BCBCBC" d="M0,10.786v60.042h66.405l31.892,16.026V70.828V10.786H0z M40.19,45.185h-4.863
	L23.45,61.889H9.364l16.25-21.701L10.613,19.283h13.749l10.965,16.022h4.863V45.185z M74.851,61.889L62.978,45.185h-8.098v16.704
	H43.609V19.283h11.271v16.022h8.098L73.94,19.283h13.741L72.688,40.188l16.246,21.701H74.851z"/>
<path id="spotify" display="none" fill="#BCBCBC" d="M97.929,49.764c0-27.043-21.923-48.965-48.964-48.965
	C21.922,0.799,0,22.721,0,49.764c0,27.042,21.922,48.963,48.965,48.963C76.007,98.727,97.929,76.806,97.929,49.764z M24.639,53.347
	c-1.983,0.607-4.07-0.516-4.673-2.493c-0.603-1.975,0.517-4.064,2.488-4.655c17.432-5.298,39.096-2.724,53.901,6.37
	c1.756,1.092,2.313,3.386,1.24,5.143c-1.093,1.762-3.396,2.312-5.15,1.238C59.556,51.009,39.886,48.723,24.639,53.347z
	 M71.729,70.781c-0.871,1.4-2.72,1.845-4.123,0.99c-11.269-6.888-25.443-8.438-42.146-4.622c-1.606,0.359-3.223-0.641-3.583-2.256
	c-0.37-1.607,0.638-3.206,2.252-3.575c18.267-4.184,33.949-2.378,46.601,5.355C72.144,67.526,72.579,69.361,71.729,70.781z
	 M19.75,29.771c16.95-5.149,45.132-4.147,62.923,6.413c2.132,1.271,2.834,4.018,1.564,6.158c-1.252,2.135-4.008,2.83-6.141,1.567
	c-15.468-9.185-40.982-10.029-55.735-5.543c-2.382,0.714-4.883-0.625-5.602-2.993C16.041,33.001,17.375,30.494,19.75,29.771z"/>
<path id="github" display="none" fill="#BCBCBC" d="M64.507,95.749c-2.438,0.474-3.303-1.026-3.303-2.308
	c0-1.584,0.053-6.763,0.053-13.196c0-4.486-1.534-7.412-3.259-8.905c10.707-1.189,21.958-5.257,21.958-23.727
	c0-5.25-1.867-9.541-4.949-12.908c0.499-1.211,2.146-6.102-0.473-12.727c0,0-4.034-1.292-13.211,4.932
	c-3.844-1.065-7.96-1.602-12.047-1.619c-4.088,0.018-8.201,0.554-12.036,1.619c-9.189-6.223-13.228-4.932-13.228-4.932
	c-2.611,6.625-0.967,11.516-0.466,12.727c-3.079,3.368-4.957,7.658-4.957,12.908c0,18.428,11.229,22.55,21.91,23.767
	c-1.374,1.199-2.62,3.32-3.054,6.428c-2.745,1.23-9.705,3.356-13.993-3.996c0,0-2.543-4.614-7.373-4.956
	c0,0-4.689-0.061-0.329,2.923c0,0,3.152,1.479,5.339,7.036c0,0,2.824,8.585,16.202,5.676c0.021,4.019,0.065,7.808,0.065,8.952
	c0,1.271-0.881,2.759-3.286,2.312C14.968,89.396,1.188,71.37,1.188,50.125c0-26.561,21.533-48.089,48.089-48.089
	c26.558,0,48.088,21.528,48.088,48.089C97.364,71.366,83.604,89.382,64.507,95.749z"/>
<path id="vimeo" display="none" fill="#BCBCBC" d="M97.671,27.013c-0.436,9.516-7.08,22.546-19.929,39.081
	C64.457,83.369,53.214,92.008,44.021,92.008c-5.694,0-10.519-5.259-14.454-15.782c-2.63-9.643-5.259-19.288-7.888-28.93
	c-2.924-10.52-6.061-15.783-9.413-15.783c-0.731,0-3.289,1.54-7.669,4.604L0,30.192c4.822-4.237,9.579-8.477,14.262-12.721
	c6.431-5.56,11.26-8.484,14.478-8.78c7.604-0.729,12.287,4.47,14.043,15.604c1.897,12.009,3.212,19.479,3.949,22.405
	c2.193,9.963,4.604,14.939,7.24,14.939c2.045,0,5.116-3.231,9.215-9.693c4.092-6.467,6.282-11.385,6.578-14.763
	c0.584-5.58-1.609-8.375-6.578-8.375c-2.341,0-4.752,0.538-7.234,1.604c4.804-15.737,13.98-23.38,27.522-22.945
	C93.517,7.763,98.248,14.277,97.671,27.013z"/>
<g id="youtube" display="none">
	<path display="inline" fill="#BCBCBC" d="M41.605,0.876h-5.475l-3.69,14.197L28.596,0.876H22.9c1.14,3.35,2.329,6.72,3.472,10.074
		c1.734,5.042,2.818,8.842,3.308,11.438v14.643h5.414V22.388L41.605,0.876z M56.075,28.309v-9.438c0-2.879-0.493-4.985-1.515-6.348
		c-1.354-1.84-3.25-2.761-5.697-2.761c-2.431,0-4.333,0.921-5.682,2.761c-1.039,1.362-1.53,3.469-1.53,6.348v9.438
		c0,2.862,0.492,4.984,1.53,6.337c1.349,1.835,3.251,2.757,5.682,2.757c2.447,0,4.344-0.922,5.697-2.757
		C55.582,33.293,56.075,31.171,56.075,28.309z M51.19,29.227c0,2.492-0.752,3.74-2.327,3.74s-2.33-1.248-2.33-3.74V17.893
		c0-2.493,0.755-3.733,2.33-3.733s2.327,1.24,2.327,3.733V29.227z M74.131,37.031V10.088h-4.886V30.68
		c-1.08,1.53-2.105,2.287-3.083,2.287c-0.653,0-1.036-0.387-1.144-1.144c-0.06-0.158-0.06-0.754-0.06-1.901V10.088h-4.868v21.305
		c0,1.901,0.165,3.192,0.434,4.005c0.488,1.366,1.572,2.005,3.145,2.005c1.78,0,3.636-1.083,5.576-3.312v2.94H74.131z"/>
	<g display="inline">
		<path fill="#BCBCBC" d="M76.75,64.384c-1.613,0-2.421,1.234-2.421,3.699v2.466h4.829v-2.466
			C79.158,65.619,78.35,64.384,76.75,64.384z"/>
		<path fill="#BCBCBC" d="M58.823,64.384c-0.793,0-1.6,0.379-2.406,1.175V81.81c0.808,0.81,1.613,1.188,2.406,1.188
			c1.395,0,2.102-1.188,2.102-3.597V68.025C60.925,65.619,60.218,64.384,58.823,64.384z"/>
		<path fill="#BCBCBC" d="M88.561,50.831c-0.978-4.249-4.454-7.384-8.639-7.852c-9.916-1.109-19.946-1.114-29.935-1.109
			c-9.989-0.005-20.023,0-29.935,1.109c-4.187,0.468-7.664,3.603-8.641,7.852c-1.393,6.057-1.407,12.663-1.407,18.897
			c0,6.231,0,12.842,1.393,18.896c0.977,4.251,4.451,7.387,8.637,7.854c9.912,1.105,19.945,1.112,29.936,1.105
			c9.986,0.007,20.02,0,29.935-1.105c4.184-0.468,7.664-3.604,8.64-7.854c1.395-6.056,1.401-12.665,1.401-18.896
			C89.947,63.494,89.953,56.887,88.561,50.831z M32.807,56.279H27.02v30.745h-5.373V56.279h-5.684V51.24h16.844V56.279z
			 M47.404,87.024h-4.835v-2.908c-1.919,2.202-3.743,3.275-5.52,3.275c-1.557,0-2.63-0.633-3.113-1.984
			c-0.265-0.808-0.423-2.078-0.423-3.963V60.362h4.827V79.99c0,1.131,0,1.724,0.044,1.877c0.117,0.752,0.485,1.131,1.131,1.131
			c0.97,0,1.981-0.747,3.054-2.261V60.362h4.835V87.024z M65.757,79.023c0,2.465-0.165,4.241-0.485,5.371
			c-0.647,1.984-1.938,2.997-3.864,2.997c-1.717,0-3.376-0.956-4.989-2.953v2.586h-4.832V51.24h4.832v11.688
			c1.561-1.921,3.214-2.894,4.989-2.894c1.926,0,3.217,1.013,3.864,3.013c0.32,1.07,0.485,2.834,0.485,5.355V79.023z M83.988,74.573
			h-9.659v4.726c0,2.47,0.807,3.699,2.465,3.699c1.19,0,1.885-0.646,2.16-1.938c0.043-0.263,0.104-1.335,0.104-3.272h4.931v0.707
			c0,1.554-0.059,2.626-0.104,3.11c-0.163,1.069-0.543,2.038-1.127,2.896c-1.34,1.933-3.32,2.889-5.844,2.889
			c-2.527,0-4.45-0.912-5.847-2.73c-1.026-1.332-1.553-3.438-1.553-6.271v-9.341c0-2.848,0.466-4.932,1.492-6.279
			c1.396-1.827,3.32-2.734,5.785-2.734c2.424,0,4.348,0.907,5.7,2.734c1.009,1.349,1.494,3.433,1.494,6.279L83.988,74.573
			L83.988,74.573z"/>
	</g>
</g>
<g id="bread_1_" display="none">
	<path display="inline" fill="#BCBCBC" d="M88.513,43.425c4.528-5.455,8.015-12.668,7.089-20.031
		C93.753,8.728,79.642-1.575,64.082,0.391c-6.84,0.862-12.82,3.952-17.22,8.391c-5.377-3.239-11.96-4.768-18.84-3.899
		C12.466,6.844,1.353,20.321,3.201,34.985c0.931,7.38,6.109,13.502,11.865,17.671l1.501,30.309
		c1.196,9.494,8.605,16.384,16.551,15.381c0,0,8.602-1.625,13.549-2.866c4.971-1.319,18.858-2.912,24.262-3.062
		c4.021-0.108,11.429-0.276,11.429-0.276c7.944-1.003,13.417-9.516,12.221-19.01L88.513,43.425z M84.349,81.786
		c-1.084,1.351-2.472,2.136-4.159,2.346c-1.688,0.213-3.229-0.198-4.61-1.241c-1.383-1.047-2.188-2.448-2.411-4.208
		c-0.221-1.759,0.209-3.318,1.293-4.665c1.08-1.352,2.469-2.136,4.156-2.349c1.69-0.213,3.229,0.201,4.612,1.243
		c1.387,1.032,2.183,2.438,2.4,4.197C85.854,78.875,85.432,80.43,84.349,81.786z"/>
</g>
<path id="twitter_1_" display="none" fill="#2CAAE1" d="M88.701,0H10.74C4.809,0,0,4.809,0,10.74V88.7
	c0,5.932,4.81,10.739,10.74,10.739h77.961c5.932,0,10.74-4.809,10.74-10.739V10.74C99.441,4.809,94.633,0,88.701,0z M80.047,36.081
	c0.027,0.625,0.043,1.256,0.043,1.887c0,19.264-14.664,41.477-41.477,41.477c-8.232,0-15.896-2.413-22.348-6.549
	c1.143,0.136,2.301,0.203,3.479,0.203c6.83,0,13.115-2.33,18.104-6.24c-6.377-0.116-11.763-4.332-13.617-10.123
	c0.891,0.171,1.805,0.263,2.744,0.263c1.328,0,2.616-0.181,3.84-0.513c-6.67-1.34-11.693-7.231-11.693-14.295
	c0-0.061,0-0.121,0-0.184c1.967,1.092,4.215,1.748,6.604,1.824c-3.912-2.615-6.484-7.076-6.484-12.134
	c0-2.672,0.719-5.177,1.973-7.328c7.189,8.819,17.933,14.623,30.048,15.229c-0.248-1.065-0.378-2.18-0.378-3.319
	c0-8.052,6.527-14.579,14.578-14.579c4.191,0,7.98,1.771,10.642,4.604c3.319-0.653,6.438-1.866,9.256-3.537
	c-1.088,3.403-3.4,6.263-6.408,8.065c2.947-0.354,5.758-1.136,8.371-2.295C85.365,31.458,82.896,34.026,80.047,36.081z"/>
<g id="linkedin_1_" display="none">
	
		<linearGradient id="SVGID_1_" gradientUnits="userSpaceOnUse" x1="-29.6003" y1="29.1877" x2="-29.5144" y2="29.1877" gradientTransform="matrix(1 0 0 -1 84 74.4399)">
		<stop  offset="0" style="stop-color:#016699"/>
		<stop  offset="1" style="stop-color:#016699"/>
	</linearGradient>
	<path display="inline" fill="url(#SVGID_1_)" d="M54.485,45.319v-0.133c-0.027,0.045-0.06,0.09-0.086,0.133H54.485z"/>
	
		<linearGradient id="SVGID_2_" gradientUnits="userSpaceOnUse" x1="-83.9993" y1="24.72" x2="15.4402" y2="24.72" gradientTransform="matrix(1 0 0 -1 84 74.4399)">
		<stop  offset="0" style="stop-color:#016699"/>
		<stop  offset="1" style="stop-color:#016699"/>
	</linearGradient>
	<path display="inline" fill="url(#SVGID_2_)" d="M88.702,0H10.741C4.81,0,0.001,4.809,0.001,10.74V88.7
		c0,5.932,4.81,10.739,10.74,10.739h77.961c5.932,0,10.738-4.809,10.738-10.739V10.74C99.44,4.809,94.634,0,88.702,0z
		 M33.966,79.297H20.759V39.555h13.207V79.297z M27.362,34.131h-0.086c-4.435,0-7.299-3.054-7.299-6.868
		c0-3.898,2.953-6.867,7.473-6.867c4.518,0,7.299,2.969,7.387,6.867C34.837,31.077,31.968,34.131,27.362,34.131z M81.599,79.297
		H68.39v-21.26c0-5.343-1.91-8.99-6.691-8.99c-3.648,0-5.824,2.459-6.777,4.834c-0.35,0.848-0.436,2.035-0.436,3.223v22.193h-13.21
		c0,0,0.174-36.014,0-39.742h13.209v5.631c1.756-2.707,4.893-6.562,11.906-6.562c8.688,0,15.207,5.68,15.207,17.885L81.599,79.297
		L81.599,79.297z"/>
</g>
<path id="facebook_1_" display="none" fill="#3D5B99" d="M88.7,0H10.739C4.808,0,0.001,4.809,0.001,10.74V88.7
	c0,5.932,4.808,10.739,10.738,10.739H88.7c5.934,0,10.74-4.809,10.74-10.739V10.74C99.44,4.809,94.634,0,88.7,0z M65.394,53.129
	h-11.25v30.104H42.683V53.129h-7.961V42.29h7.961c0,0,0-4.441,0-9.258c0-7.276,4.7-13.956,15.537-13.956
	c4.387,0,7.631,0.421,7.631,0.421l-0.256,10.122c0,0-3.31-0.032-6.919-0.032c-3.907,0-4.532,1.801-4.532,4.79c0,0.369,0,0.5,0,0.506
	c0,0.838,0,2.873,0,7.408h11.762L65.394,53.129z"/>
<path id="yelp_1_" display="none" fill="#CA3C27" d="M88.703,0H10.74C4.809,0,0,4.809,0,10.74V88.7
	c0,5.932,4.81,10.739,10.74,10.739h77.963c5.93,0,10.738-4.809,10.738-10.739V10.74C99.441,4.809,94.633,0,88.703,0z M30.605,25.937
	c0.637-1.021,1.858-1.426,1.858-1.426l12.496-4.643c0.533-0.079,1.086-0.669,2.949,0.462c1.187,0.715,1.455,3.357,1.455,3.357
	l0.119,21.428c0,0-0.281,2.571-2.055,3.01c-1.632,0.401-2.914-0.924-2.914-0.924l-12.984-17.7
	C31.531,29.502,29.695,27.384,30.605,25.937z M23.992,62.528c-0.482-0.85-0.352-2.715-0.352-2.715l0.875-10.768
	c0.063-0.699,0.721-1.49,1.459-1.928c0.967-0.572,2.957,0.248,2.957,0.248l13.43,6.784c0,0,2.029,0.992,1.984,2.646
	c-0.06,2.186-1.128,2.221-1.736,2.633l-15.68,3.465C26.93,62.893,24.678,63.731,23.992,62.528z M48.17,82.948
	c-0.969,0.282-2.246,0.016-2.246,0.016l-10.543-3.328c-0.733-0.354-1.256-0.863-1.567-1.879c-0.332-1.084,0.977-2.854,0.977-2.854
	l10.5-11.557c0,0,1.609-1.43,2.955-0.738c1.232,0.638,1.285,2.146,1.285,2.146l-0.238,15.646
	C49.291,80.399,49.545,82.549,48.17,82.948z M54.582,50.805l8.502-13.381c0,0,0.879-1.727,2.304-1.604
	c1.293,0.107,1.918,1.179,1.918,1.179l7.188,8.471c0,0,0.627,1.344,0.34,2.455c-0.293,1.113-2.344,1.945-2.344,1.945l-15.049,4.397
	c0,0-2.129,0.383-2.9-0.928C53.828,52.139,54.582,50.805,54.582,50.805z M74.328,68.346l-6.371,9.105c0,0-1.137,0.944-2.289,0.944
	c-1.146,0-2.469-1.772-2.469-1.772L55.14,63.168c0,0-0.906-1.965,0.164-3.045c0.983-0.994,2.463-0.603,2.463-0.603l15.082,4.845
	c0,0,2.157,0.393,2.135,1.823C74.971,67.196,74.328,68.346,74.328,68.346z"/>
<path id="lastfm_1_" display="none" fill="#A52F23" d="M88.701,0H10.738C4.809,0,0.002,4.809,0.002,10.74V88.7
	c0,5.932,4.808,10.739,10.736,10.739h77.963c5.932,0,10.738-4.809,10.738-10.739V10.74C99.439,4.809,94.633,0,88.701,0z
	 M67.193,69.719c-13.078,0-17.615-5.896-20.031-13.229l-2.42-7.56c-1.813-5.52-3.934-9.828-10.584-9.828
	c-4.613,0-9.299,3.326-9.299,12.625c0,7.258,3.703,11.795,8.92,11.795c5.896,0,9.828-4.387,9.828-4.387l2.42,6.576
	c0,0-4.084,4.008-12.627,4.008c-10.582,0-16.48-6.197-16.48-17.691c0-11.942,5.898-18.973,17.011-18.973
	c10.055,0,15.12,3.629,18.297,13.457l2.492,7.559c1.815,5.519,4.991,9.525,12.625,9.525c5.141,0,7.862-1.135,7.862-3.932
	c0-2.191-1.285-3.779-5.141-4.688l-5.144-1.209c-6.271-1.512-8.768-4.762-8.768-9.901c0-8.242,6.652-10.812,13.457-10.812
	c7.711,0,12.396,2.797,13.004,9.6l-7.561,0.908c-0.304-3.25-2.271-4.61-5.898-4.61c-3.324,0-5.367,1.512-5.367,4.082
	c0,2.268,0.984,3.627,4.312,4.385l4.838,1.059c6.5,1.513,9.979,4.687,9.979,10.81C82.918,66.846,76.568,69.719,67.193,69.719z"/>
<path id="tumblr_1_" display="none" fill="#45556B" d="M88.701,0H10.74C4.809,0,0,4.809,0,10.74V88.7
	c0,5.932,4.81,10.739,10.74,10.739h77.961c5.932,0,10.74-4.809,10.74-10.739V10.74C99.441,4.809,94.633,0,88.701,0z M66.295,76.163
	c-2.469,1.16-4.703,1.979-6.703,2.446c-2,0.468-4.163,0.701-6.487,0.701c-2.64,0-4.974-0.332-7.002-1
	c-2.027-0.666-3.756-1.617-5.189-2.85c-1.434-1.234-2.426-2.547-2.979-3.938c-0.556-1.389-0.832-3.403-0.832-6.043V45.227h-6.381
	v-8.172c2.268-0.736,4.213-1.793,5.827-3.17c1.619-1.374,2.916-3.027,3.896-4.958c0.979-1.927,1.652-4.381,2.021-7.361h8.211v14.597
	h13.703v9.063H50.676v14.81c0,3.346,0.179,5.493,0.533,6.446c0.354,0.949,1.017,1.707,1.979,2.275
	c1.276,0.766,2.735,1.15,4.383,1.15c2.922,0,5.83-0.951,8.725-2.854L66.295,76.163L66.295,76.163z"/>
<path id="pinterest_1_" display="none" fill="#CB2027" d="M88.7,0H10.741C4.81,0,0.001,4.809,0.001,10.74V88.7
	c0,5.932,4.81,10.739,10.74,10.739H88.7c5.932,0,10.74-4.809,10.74-10.739V10.74C99.44,4.809,94.632,0,88.7,0z M55.515,66.866
	c-4.193,0-8.136-2.267-9.484-4.841c0,0-2.258,8.947-2.732,10.677c-1.682,6.102-6.629,12.207-7.012,12.709
	c-0.27,0.346-0.861,0.237-0.924-0.224c-0.107-0.776-1.367-8.479,0.117-14.76c0.744-3.152,4.994-21.16,4.994-21.16
	s-1.238-2.479-1.238-6.145c0-5.756,3.336-10.054,7.488-10.054c3.532,0,5.239,2.652,5.239,5.83c0,3.554-2.262,8.861-3.43,13.781
	c-0.977,4.121,2.066,7.48,6.131,7.48c7.355,0,12.312-9.451,12.312-20.648c0-8.51-5.729-14.882-16.16-14.882
	c-11.777,0-19.117,8.787-19.117,18.601c0,3.381,0.998,5.771,2.561,7.613c0.72,0.85,0.82,1.191,0.56,2.166
	c-0.189,0.715-0.611,2.437-0.793,3.115c-0.258,0.983-1.053,1.336-1.941,0.973c-5.426-2.213-7.955-8.156-7.955-14.836
	c0-11.031,9.306-24.259,27.757-24.259c14.827,0,24.586,10.727,24.586,22.248C76.47,55.485,67.999,66.866,55.515,66.866z"/>
<path id="flickr_1_" display="none" fill="#ED1E83" d="M88.701,0H10.739C4.808,0-0.001,4.809-0.001,10.74V88.7
	c0,5.932,4.81,10.739,10.74,10.739h77.962c5.932,0,10.74-4.809,10.74-10.739V10.74C99.441,4.809,94.633,0,88.701,0z M32.958,63.323
	c-7.513,0-13.604-6.091-13.604-13.604c0-7.512,6.091-13.602,13.604-13.602c7.515,0,13.604,6.09,13.604,13.602
	C46.562,57.233,40.472,63.323,32.958,63.323z M66.48,63.323c-7.514,0-13.604-6.091-13.604-13.604c0-7.512,6.09-13.602,13.604-13.602
	s13.604,6.09,13.604,13.602C80.086,57.233,73.994,63.323,66.48,63.323z"/>
<path id="vevo_1_" display="none" fill="#DC2726" d="M88.701,0H10.74C4.809,0,0,4.809,0,10.74V88.7
	c0,5.932,4.81,10.739,10.74,10.739h77.961c5.934,0,10.74-4.809,10.74-10.739V10.74C99.441,4.809,94.635,0,88.701,0z M59.861,75.215
	H41.076L13.457,26.007h17.879l18.799,37.132L68.85,26.007h17.133L59.861,75.215z"/>
<g id="wordpress_1_" display="none">
	<path display="inline" fill="#464342" d="M49.721,17.64c-17.689,0-32.08,14.392-32.08,32.08c0,17.689,14.391,32.08,32.08,32.08
		c17.688,0,32.077-14.391,32.077-32.08S67.41,17.64,49.721,17.64z M20.879,49.719c0-4.182,0.898-8.15,2.496-11.738l13.76,37.695
		C27.514,71.002,20.879,61.135,20.879,49.719z M49.721,78.563c-2.832,0-5.564-0.414-8.148-1.174l8.654-25.147l8.864,24.288
		c0.06,0.146,0.132,0.273,0.207,0.398C56.301,77.985,53.08,78.563,49.721,78.563z M53.697,36.196
		c1.734-0.09,3.299-0.272,3.299-0.272c1.555-0.187,1.369-2.469-0.184-2.377c0,0-4.67,0.367-7.687,0.367
		c-2.836,0-7.598-0.367-7.598-0.367c-1.555-0.092-1.738,2.285-0.184,2.377c0,0,1.473,0.184,3.024,0.272l4.494,12.312l-6.312,18.93
		L32.049,36.196c1.738-0.09,3.302-0.272,3.302-0.272c1.553-0.187,1.371-2.469-0.185-2.377c0,0-4.67,0.367-7.688,0.367
		c-0.541,0-1.179-0.015-1.855-0.037c5.156-7.829,14.021-12.999,24.099-12.999c7.508,0,14.346,2.871,19.477,7.572
		c-0.123-0.009-0.244-0.023-0.373-0.023c-2.834,0-4.844,2.469-4.844,5.12c0,2.377,1.371,4.387,2.832,6.764
		c1.098,1.922,2.379,4.39,2.379,7.955c0,2.469-0.949,5.334-2.193,9.324l-2.88,9.611L53.697,36.196z M75.031,35.881
		c2.25,4.106,3.533,8.824,3.533,13.838c0,10.641-5.769,19.93-14.344,24.93l8.811-25.471c1.645-4.113,2.193-7.404,2.193-10.33
		C75.225,37.786,75.154,36.801,75.031,35.881z"/>
	<path display="inline" fill="#464342" d="M88.701,0H10.74C4.809,0,0,4.808,0,10.74V88.7c0,5.934,4.81,10.739,10.74,10.739h77.961
		c5.932,0,10.74-4.807,10.74-10.739V10.74C99.441,4.808,94.633,0,88.701,0z M49.721,85.606c-19.787,0-35.888-16.098-35.888-35.887
		c0-19.788,16.101-35.885,35.888-35.885c19.786,0,35.887,16.098,35.887,35.885C85.607,69.508,69.508,85.606,49.721,85.606z"/>
</g>
<g id="bebo_1_" display="none">
	<path display="inline" fill="#F26722" d="M39.68,42.907h9.852c1.881,0,3.402-1.543,3.402-3.404s-1.521-3.385-3.402-3.385H39.68
		c-1.88,0-3.402,1.522-3.402,3.385S37.801,42.907,39.68,42.907z"/>
	<path display="inline" fill="#F26722" d="M59.703,56.461H39.68c-1.88,0-3.402,1.521-3.402,3.383c0,1.842,1.522,3.385,3.402,3.385
		h20.022c1.861,0,3.383-1.543,3.383-3.385C63.086,57.983,61.564,56.461,59.703,56.461z"/>
	<path display="inline" fill="#F26722" d="M88.701,0H10.74C4.809,0,0,4.81,0,10.74v77.961c0,5.93,4.81,10.737,10.74,10.737h77.961
		c5.932,0,10.74-4.809,10.74-10.737V10.74C99.441,4.81,94.633,0,88.701,0z M77.639,60.108c-0.06,9.759-7.99,17.748-17.769,17.748
		H39.455c-9.776,0-17.766-7.989-17.766-17.748V39.372c0-9.777,7.987-17.785,17.766-17.785h12.428
		c4.586,0.544,11.263,4.474,13.726,9.701c0.676,1.466,1.033,1.69,1.598,6.035c0.301,2.235,0.449,3.891,1.447,4.812
		c1.41,1.277,6.637,0.414,7.67,1.223l0.791,0.619l0.467,0.979l0.172,0.789L77.639,60.108z"/>
</g>
<g id="instagram_1_" display="none">
	<path display="inline" fill="#3F729B" d="M69.708,27.51h-6.661c-1.228,0-2.221,0.995-2.221,2.221v6.665
		c0,1.226,0.993,2.222,2.221,2.222h6.661c1.229,0,2.224-0.996,2.224-2.222V29.73C71.931,28.505,70.937,27.51,69.708,27.51z"/>
	<path display="inline" fill="#3F729B" d="M67.486,49.719c0,9.814-7.953,17.766-17.766,17.766c-9.813,0-17.768-7.95-17.768-17.766
		c0-1.535,0.217-3.021,0.584-4.443H27.51v24.433c0,1.225,0.993,2.219,2.224,2.219h39.975c1.229,0,2.224-0.994,2.224-2.219V45.276
		h-5.026C67.271,46.698,67.486,48.184,67.486,49.719z"/>
	<path display="inline" fill="#3F729B" d="M88.7,0H10.74C4.809,0,0,4.81,0,10.74v77.961c0,5.93,4.81,10.737,10.74,10.737H88.7
		c5.932,0,10.74-4.809,10.74-10.737V10.74C99.44,4.81,94.632,0,88.7,0z M78.593,71.926c0,3.682-2.981,6.666-6.661,6.666h-44.42
		c-3.681,0-6.662-2.984-6.662-6.666V27.51c0-3.68,2.981-6.661,6.662-6.661h44.42c3.68,0,6.661,2.981,6.661,6.661V71.926z"/>
	<circle display="inline" fill="#3F729B" cx="49.721" cy="49.72" r="11.104"/>
</g>
<g id="google_plus" display="none">
	<path display="inline" fill="#303030" d="M36.633,29.672c-4.272-0.127-7.139,4.167-6.399,9.778
		c0.738,5.608,4.797,10.262,9.07,10.389c4.27,0.129,7.135-4.316,6.397-9.926C44.963,34.303,40.902,29.801,36.633,29.672z"/>
	<path display="inline" fill="#303030" d="M38.734,60.731c-6.365-0.067-12.066,3.881-12.066,8.625c0,4.838,4.597,8.869,10.961,8.869
		c8.947,0,12.068-3.783,12.068-8.623c0-0.584-0.072-1.153-0.203-1.709c-0.699-2.74-3.178-4.098-6.633-6.5
		C41.604,60.987,40.221,60.747,38.734,60.731z"/>
	<path display="inline" fill="#303030" d="M88.701,0H10.738C4.809,0,0,4.809,0,10.74V88.7c0,5.932,4.81,10.739,10.738,10.739h77.963
		c5.932,0,10.74-4.809,10.74-10.739V10.74C99.441,4.809,94.633,0,88.701,0z M51.662,39.674c0,3.504-1.938,6.428-4.684,8.572
		c-2.674,2.09-3.185,2.967-3.185,4.741c0,1.519,2.867,4.099,4.365,5.158c4.383,3.101,5.801,5.976,5.801,10.777
		c0,5.992-5.801,11.947-16.297,11.947c-9.209,0-16.979-3.746-16.979-9.734c0-6.082,7.088-11.945,16.295-11.945
		c1.004,0,1.922-0.024,2.875-0.024c-1.261-1.226-2.258-2.724-2.258-4.576c0-1.1,0.35-2.146,0.842-3.088
		c-0.5,0.035-1.01,0.063-1.535,0.063c-7.564,0-12.633-5.342-12.633-12.008c0-6.524,6.996-12.081,14.432-12.081
		c4.146,0,16.584,0,16.584,0l-3.711,2.706h-5.26C49.805,31.537,51.662,35.502,51.662,39.674z M84.104,40.67H73.279v10.822h-2.367
		V40.67H59.75v-2.707h11.162V27.479h2.367v10.485h10.824L84.104,40.67L84.104,40.67z"/>
</g>
<g id="foursquare_1_" display="none">
	<path display="inline" fill="#0BBADF" d="M49.72,23.171c-14.64,0-26.55,11.912-26.55,26.55S35.081,76.27,49.72,76.27
		c14.639,0,26.549-11.91,26.549-26.549S64.358,23.171,49.72,23.171z M59.038,62.549c0,0-0.174,0.791-1.219,0.791H41.546
		c-1.256,0-1.393-1.021-1.393-1.021l-2.9-8.952h24.937L59.038,62.549z M65.983,47.202c-0.428,0-0.857-0.072-1.289-0.285
		l-2.148,5.514H36.896l-2.15-5.514c-0.428,0.213-0.861,0.285-1.287,0.285c-1.649,0-3.012-1.363-3.012-3.009
		c0-1.647,1.361-3.008,3.012-3.008c1.646,0,3.011,1.359,3.011,3.008c0,0.789-0.359,1.576-0.859,2.076
		c4.012,2.437,10.959,1.22,13.752-4.227c-1.506-0.142-2.648-1.433-2.648-2.938c0-1.647,1.361-3.006,3.011-3.006
		c1.645,0,3.01,1.357,3.01,3.006c0,1.506-1.146,2.797-2.652,2.938c2.793,5.444,9.74,6.662,13.758,4.227
		c-0.506-0.5-0.858-1.287-0.858-2.076c0-1.647,1.356-3.008,3.006-3.008c1.648,0,3.01,1.359,3.01,3.008
		C68.993,45.838,67.632,47.202,65.983,47.202z"/>
	<path display="inline" fill="#0BBADF" d="M88.7,0H10.739C4.808,0,0.001,4.809,0.001,10.738v77.964
		c0,5.93,4.808,10.737,10.738,10.737H88.7c5.934,0,10.74-4.809,10.74-10.737V10.738C99.44,4.809,94.634,0,88.7,0z M49.72,82.12
		c-17.865,0-32.398-14.535-32.398-32.398c0-17.867,14.533-32.401,32.398-32.401c17.864,0,32.399,14.534,32.399,32.401
		C82.12,67.584,67.585,82.12,49.72,82.12z"/>
</g>
<g id="dribbble_1_" display="none">
	<path display="inline" fill="#EA4C89" d="M51.486,49.906c0.356-0.115,0.719-0.225,1.082-0.326c-0.691-1.562-1.441-3.121-2.229-4.66
		c-12.481,3.734-24.52,3.929-27.479,3.915c-0.01,0.294-0.021,0.589-0.021,0.884c0,1.836,0.185,3.67,0.545,5.453
		c0.354,1.734,0.882,3.444,1.57,5.082c0.674,1.604,1.51,3.149,2.48,4.595c0.621,0.927,1.311,1.812,2.045,2.659
		C31.008,65.051,38.389,54.139,51.486,49.906z"/>
	<path display="inline" fill="#EA4C89" d="M54.254,54.181C39.91,59.18,34.129,68.684,32.963,70.859
		c0.562,0.452,1.14,0.888,1.734,1.29c1.438,0.978,2.973,1.815,4.564,2.492c1.62,0.689,3.317,1.221,5.047,1.576
		c3.537,0.729,7.287,0.729,10.823,0c1.729-0.355,3.427-0.887,5.048-1.576c0.02-0.008,0.038-0.018,0.057-0.024
		c-0.486-2.777-2.105-10.89-5.801-20.494C54.375,54.142,54.314,54.161,54.254,54.181z"/>
	<path display="inline" fill="#EA4C89" d="M38.178,25.287c-1.207,0.579-2.373,1.247-3.48,2c-1.424,0.967-2.762,2.077-3.979,3.301
		c-1.22,1.224-2.322,2.57-3.283,4c-0.974,1.446-1.808,2.993-2.48,4.597c-0.658,1.566-1.166,3.2-1.518,4.859
		c2.746-0.01,13.008-0.266,24.633-3.353C43.855,33.2,39.383,26.94,38.178,25.287z"/>
	<path display="inline" fill="#EA4C89" d="M67.48,29.422c-0.867-0.769-1.779-1.487-2.734-2.136
		c-1.438-0.977-2.973-1.814-4.565-2.492c-1.623-0.69-3.32-1.22-5.048-1.575c-1.77-0.364-3.59-0.549-5.411-0.549
		c-1.82,0-3.644,0.185-5.412,0.549c-0.302,0.062-0.599,0.135-0.896,0.208c1.221,1.644,5.777,7.923,9.965,15.615
		C62.4,35.66,66.527,30.705,67.48,29.422z"/>
	<path display="inline" fill="#EA4C89" d="M74.488,39.184c-0.674-1.602-1.508-3.147-2.482-4.597
		c-0.459-0.686-0.955-1.351-1.479-1.992c-1.047,1.354-5.601,6.678-15.039,10.531c0.639,1.31,1.252,2.638,1.824,3.979
		c0.201,0.475,0.397,0.946,0.59,1.417c8.428-1.061,16.744,0.424,18.69,0.812c-0.022-1.708-0.2-3.411-0.536-5.07
		C75.703,42.528,75.176,40.819,74.488,39.184z"/>
	<path display="inline" fill="#EA4C89" d="M88.701,0H10.74C4.809,0,0,4.809,0,10.738v77.964c0,5.93,4.81,10.737,10.74,10.737h77.961
		c5.934,0,10.74-4.809,10.74-10.737V10.738C99.441,4.809,94.635,0,88.701,0z M81.527,56.284c-0.428,2.094-1.064,4.156-1.894,6.133
		c-0.813,1.934-1.821,3.8-2.993,5.545c-1.158,1.723-2.488,3.346-3.957,4.823c-1.468,1.476-3.082,2.814-4.802,3.981
		c-1.737,1.18-3.594,2.193-5.518,3.011c-1.961,0.837-4.016,1.478-6.105,1.906c-2.139,0.44-4.338,0.664-6.538,0.664
		c-2.199,0-4.4-0.224-6.539-0.664c-2.091-0.43-4.146-1.069-6.105-1.906c-1.924-0.816-3.779-1.831-5.518-3.011
		c-1.716-1.166-3.33-2.506-4.8-3.98c-1.469-1.479-2.801-3.103-3.959-4.826c-1.17-1.741-2.178-3.607-2.991-5.543
		c-0.83-1.978-1.468-4.04-1.896-6.134c-0.436-2.147-0.658-4.356-0.658-6.565c0-2.207,0.224-4.416,0.658-6.564
		c0.428-2.096,1.064-4.158,1.896-6.133c0.813-1.935,1.819-3.8,2.991-5.545c1.16-1.726,2.492-3.349,3.959-4.825
		c1.468-1.476,3.082-2.815,4.802-3.981c1.731-1.178,3.59-2.192,5.516-3.012c1.965-0.835,4.018-1.478,6.107-1.906
		c4.276-0.88,8.797-0.88,13.075,0c2.089,0.429,4.144,1.071,6.105,1.906c1.926,0.819,3.783,1.833,5.518,3.012
		c1.72,1.167,3.334,2.507,4.802,3.981c1.465,1.476,2.797,3.099,3.957,4.824c1.174,1.747,2.18,3.612,2.993,5.545
		c0.828,1.974,1.466,4.035,1.894,6.132c0.436,2.148,0.658,4.356,0.658,6.565S81.963,54.135,81.527,56.284z"/>
	<path display="inline" fill="#EA4C89" d="M59.574,52.852c3.385,9.297,4.877,16.969,5.275,19.225
		c1.385-0.95,2.688-2.034,3.875-3.228c1.217-1.226,2.321-2.572,3.28-4.001c0.974-1.447,1.808-2.992,2.482-4.596
		c0.688-1.637,1.215-3.347,1.568-5.082c0.084-0.412,0.153-0.828,0.219-1.244C74.529,53.408,67.531,51.578,59.574,52.852z"/>
</g>
<g id="klout_1_" display="none">
	<g display="inline">
		<polygon fill="#E14C26" points="31.007,60.729 39.194,49.215 42.546,49.215 42.546,42.406 39.194,42.406 31.636,31.358 
			22.157,31.358 32.499,45.77 21.296,60.729 		"/>
		<polygon fill="#E14C26" points="52.673,49.215 58.253,49.215 66.438,60.729 76.147,60.729 64.95,45.77 75.286,31.358 
			65.812,31.358 58.253,42.406 52.673,42.406 52.673,31.358 44.903,31.358 44.903,60.729 52.673,60.729 		"/>
		<path fill="#E14C26" d="M88.702,0H10.741C4.81,0,0.001,4.809,0.001,10.738v77.964c0,5.93,4.81,10.737,10.74,10.737h77.961
			c5.932,0,10.738-4.809,10.738-10.737V10.738C99.44,4.809,94.634,0,88.702,0z M82.603,66.891v11.047L60.618,66.891H14.841v-41.39
			h67.763V66.891z"/>
	</g>
</g>
<g id="spotify_1_" display="none">
	<path display="inline" fill="#75C044" d="M88.701,0H10.74C4.809,0,0,4.809,0,10.74v77.962c0,5.93,4.81,10.737,10.74,10.737h77.961
		c5.932,0,10.739-4.809,10.739-10.737V10.74C99.44,4.809,94.633,0,88.701,0z M49.653,82.944c-17.305,0-31.332-14.026-31.332-31.332
		c0-17.305,14.028-31.331,31.332-31.331s31.331,14.026,31.331,31.331C80.984,68.917,66.957,82.944,49.653,82.944z"/>
	<path display="inline" fill="#75C044" d="M67.181,53.407c-9.475-5.82-23.337-7.468-34.49-4.078
		c-1.262,0.379-1.979,1.715-1.592,2.979c0.386,1.266,1.72,1.984,2.987,1.597c9.757-2.962,22.344-1.496,30.592,3.586
		c1.122,0.686,2.597,0.334,3.295-0.796C68.66,55.575,68.304,54.104,67.181,53.407z"/>
	<path display="inline" fill="#75C044" d="M71.221,42.922c-11.384-6.758-29.416-7.398-40.263-4.103
		c-1.52,0.462-2.373,2.064-1.913,3.582c0.46,1.519,2.061,2.373,3.585,1.916c9.439-2.87,25.768-2.33,35.662,3.548
		c1.365,0.809,3.129,0.362,3.932-1.003C73.037,45.493,72.586,43.737,71.221,42.922z"/>
	<path display="inline" fill="#75C044" d="M63.579,62.432c-8.095-4.947-18.13-6.102-29.817-3.426
		c-1.032,0.234-1.678,1.258-1.44,2.287c0.23,1.033,1.266,1.674,2.293,1.442c10.688-2.44,19.758-1.448,26.969,2.957
		c0.896,0.548,2.08,0.265,2.638-0.633C64.762,64.153,64.484,62.979,63.579,62.432z"/>
</g>
<path id="github_1_" display="none" d="M88.701,0H10.74C4.809,0,0,4.809,0,10.738v77.964c0,5.93,4.81,10.737,10.74,10.737h77.961
	c5.934,0,10.74-4.809,10.74-10.737V10.738C99.441,4.809,94.635,0,88.701,0z M60.223,81.997c-1.683,0.326-2.277-0.707-2.277-1.59
	c0-1.095,0.037-4.664,0.037-9.101c0-3.094-1.06-5.111-2.248-6.141c7.383-0.82,15.141-3.625,15.141-16.361
	c0-3.619-1.287-6.578-3.412-8.899c0.345-0.835,1.479-4.207-0.325-8.774c0,0-2.781-0.891-9.109,3.399
	c-2.65-0.734-5.488-1.104-8.307-1.115c-2.818,0.013-5.654,0.381-8.3,1.115c-6.336-4.29-9.121-3.399-9.121-3.399
	c-1.801,4.567-0.665,7.939-0.319,8.774c-2.123,2.321-3.418,5.28-3.418,8.899c0,12.707,7.742,15.549,15.106,16.389
	c-0.946,0.826-1.807,2.289-2.104,4.433c-1.894,0.848-6.691,2.313-9.648-2.756c0,0-1.754-3.183-5.084-3.416
	c0,0-3.233-0.043-0.227,2.016c0,0,2.174,1.021,3.682,4.853c0,0,1.947,5.918,11.172,3.911c0.015,2.771,0.045,5.384,0.045,6.175
	c0,0.875-0.606,1.899-2.266,1.594C26.066,77.619,16.564,65.19,16.564,50.539c0-18.313,14.848-33.158,33.158-33.158
	c18.312,0,33.157,14.845,33.157,33.158C82.879,65.184,73.391,77.608,60.223,81.997z M41.273,71.081
	c0.047,0.266-0.228,0.541-0.619,0.612c-0.385,0.07-0.74-0.094-0.789-0.358c-0.049-0.273,0.23-0.547,0.615-0.617
	C40.873,70.649,41.223,70.809,41.273,71.081z M38.748,71.51c0.01,0.273-0.309,0.5-0.703,0.504c-0.396,0.01-0.719-0.211-0.723-0.479
	c0-0.275,0.312-0.5,0.707-0.509C38.424,71.018,38.748,71.24,38.748,71.51z M36.033,71.311c-0.08,0.26-0.451,0.377-0.828,0.269
	c-0.375-0.113-0.619-0.418-0.545-0.681c0.078-0.262,0.453-0.385,0.832-0.266C35.865,70.745,36.111,71.047,36.033,71.311z
	 M33.562,70.241c-0.183,0.198-0.568,0.146-0.853-0.127c-0.289-0.269-0.371-0.646-0.188-0.849c0.186-0.201,0.574-0.145,0.858,0.127
	C33.67,69.661,33.758,70.042,33.562,70.241z M31.771,68.395c-0.201,0.144-0.535,0.011-0.74-0.285
	c-0.203-0.295-0.203-0.649,0.004-0.791c0.205-0.143,0.535-0.014,0.742,0.279C31.98,67.897,31.98,68.25,31.771,68.395z
	 M30.465,66.485c-0.157,0.146-0.467,0.078-0.678-0.151c-0.217-0.23-0.256-0.541-0.096-0.689c0.162-0.146,0.463-0.078,0.68,0.154
	S30.631,66.336,30.465,66.485z M29.121,64.987c-0.072,0.166-0.332,0.216-0.567,0.103c-0.24-0.107-0.375-0.332-0.298-0.498
	c0.072-0.17,0.33-0.217,0.57-0.104C29.066,64.596,29.205,64.823,29.121,64.987z"/>
<path id="vimeo_1_" display="none" fill="#1FB7EA" d="M88.7,0H10.739C4.808,0,0,4.81,0,10.74V88.7
	C0,94.632,4.808,99.44,10.739,99.44H88.7c5.932,0,10.74-4.809,10.74-10.739V10.74C99.44,4.81,94.632,0,88.7,0z M82.64,34.936
	c-0.304,6.613-4.92,15.666-13.85,27.158C59.56,74.098,51.747,80.1,45.358,80.1c-3.957,0-7.31-3.654-10.044-10.965
	c-1.827-6.703-3.654-13.404-5.481-20.105c-2.031-7.309-4.211-10.967-6.541-10.967c-0.508,0-2.285,1.07-5.329,3.199l-3.193-4.117
	c3.351-2.944,6.655-5.89,9.91-8.839c4.469-3.863,7.823-5.896,10.061-6.101c5.285-0.507,8.538,3.104,9.759,10.842
	c1.318,8.344,2.232,13.536,2.744,15.569c1.524,6.924,3.2,10.381,5.031,10.381c1.421,0,3.556-2.244,6.402-6.736
	c2.844-4.492,4.366-7.91,4.571-10.258c0.405-3.877-1.118-5.818-4.571-5.818c-1.627,0-3.303,0.373-5.026,1.113
	c3.338-10.936,9.715-16.247,19.125-15.944C79.753,21.56,83.041,26.086,82.64,34.936z"/>
<g id="youtube_1_" display="none">
	<path display="inline" fill="#EB2629" d="M44.633,71.362c-0.735,1.039-1.432,1.552-2.098,1.552c-0.443,0-0.696-0.261-0.776-0.775
		c-0.029-0.104-0.029-0.514-0.029-1.289V57.366h-3.316v14.479c0,1.293,0.109,2.166,0.291,2.721c0.332,0.931,1.069,1.363,2.139,1.363
		c1.221,0,2.474-0.736,3.791-2.25v1.998h3.32V57.366h-3.32L44.633,71.362L44.633,71.362z"/>
	<polygon display="inline" fill="#EB2629" points="26.359,54.561 30.263,54.561 30.263,75.678 33.953,75.678 33.953,54.561 
		37.928,54.561 37.928,51.1 26.359,51.1 	"/>
	<path display="inline" fill="#EB2629" d="M57.57,57.141c-1.219,0-2.355,0.668-3.427,1.988V51.1h-3.318v24.578h3.318v-1.775
		c1.107,1.371,2.248,2.027,3.427,2.027c1.323,0,2.21-0.695,2.654-2.059c0.221-0.775,0.334-1.996,0.334-3.689v-7.293
		c0-1.731-0.113-2.943-0.334-3.68C59.78,57.836,58.894,57.141,57.57,57.141z M57.24,70.444c0,1.654-0.486,2.47-1.443,2.47
		c-0.545,0-1.099-0.261-1.652-0.814V60.936c0.555-0.547,1.107-0.807,1.652-0.807c0.957,0,1.443,0.848,1.443,2.5V70.444z"/>
	<path display="inline" fill="#EB2629" d="M88.701,0H10.74C4.809,0,0,4.809,0,10.74v77.963c0,5.93,4.81,10.737,10.74,10.737h77.961
		c5.932,0,10.739-4.809,10.739-10.737V10.74C99.44,4.809,94.633,0,88.701,0z M56.658,23.238h0.01v-0.401h3.345V36.46
		c0,0.787,0,1.197,0.039,1.305c0.074,0.521,0.338,0.785,0.786,0.785c0.667,0,1.369-0.516,2.107-1.558V23.238h0.01v-0.401h3.355
		V41.34h-0.013v0.404h-3.354v-2.021c-1.336,1.533-2.607,2.273-3.83,2.273c-1.079,0-1.825-0.438-2.158-1.375
		c-0.186-0.562-0.299-1.445-0.299-2.75L56.658,23.238L56.658,23.238z M43.992,29.272c0-0.076,0.009-0.137,0.01-0.211v-0.192
		c0-1.979,0.338-3.425,1.052-4.359c0.927-1.264,2.232-1.896,3.902-1.896c1.682,0,2.983,0.634,3.913,1.896
		c0.701,0.936,1.04,2.382,1.04,4.359v6.481c0,0.083-0.01,0.151-0.011,0.232v0.17c0,1.969-0.337,3.426-1.041,4.352
		c-0.926,1.263-2.232,1.896-3.912,1.896c-1.671,0-2.975-0.633-3.902-1.896c-0.713-0.926-1.051-2.383-1.051-4.352V29.272z
		 M31.123,16.508h3.912l2.641,9.751l2.535-9.751h3.761L43.85,16.91h0.112l-4.465,14.748v9.683h-0.009v0.404h-3.72v-10.06
		c-0.337-1.78-1.08-4.392-2.273-7.855c-0.783-2.305-1.6-4.616-2.383-6.92h0.148C31.216,16.776,31.169,16.642,31.123,16.508z
		 M76.211,76.778c-0.67,2.921-3.061,5.074-5.934,5.396c-6.812,0.76-13.701,0.766-20.562,0.76c-6.86,0.006-13.753,0-20.561-0.76
		c-2.875-0.32-5.262-2.475-5.933-5.396c-0.956-4.157-0.956-8.696-0.956-12.979c0-4.283,0.01-8.82,0.967-12.98
		c0.67-2.918,3.059-5.069,5.934-5.391c6.809-0.764,13.699-0.766,20.562-0.764c6.858-0.002,13.75,0,20.56,0.764
		c2.874,0.32,5.263,2.473,5.935,5.391c0.956,4.16,0.951,8.697,0.951,12.98C77.174,68.081,77.168,72.62,76.211,76.778z"/>
	<path display="inline" fill="#EB2629" d="M68.14,57.141c-1.693,0-3.017,0.625-3.975,1.879c-0.705,0.926-1.024,2.357-1.024,4.312
		v6.416c0,1.944,0.36,3.391,1.065,4.307c0.959,1.25,2.279,1.875,4.017,1.875c1.731,0,3.094-0.656,4.014-1.984
		c0.401-0.588,0.662-1.254,0.774-1.987c0.029-0.334,0.069-1.07,0.069-2.138v-0.485h-3.387c0,1.332-0.042,2.067-0.071,2.248
		c-0.188,0.887-0.666,1.33-1.482,1.33c-1.14,0-1.693-0.845-1.693-2.541v-3.244h6.635v-3.795c0-1.955-0.333-3.388-1.025-4.312
		C71.125,57.766,69.805,57.141,68.14,57.141z M69.764,64.365h-3.317V62.67c0-1.693,0.555-2.541,1.663-2.541
		c1.099,0,1.654,0.848,1.654,2.541V64.365z"/>
	<path display="inline" fill="#EB2629" d="M48.956,38.549c1.026,0,1.539-0.782,1.589-2.326V28.6c0-1.712-0.52-2.566-1.6-2.566
		c-1.026,0-1.54,0.781-1.59,2.326v7.622C47.355,37.694,47.874,38.549,48.956,38.549z"/>
</g>
<g id="bread" display="none">
	<path display="inline" fill="#00A4E4" d="M70.039,66.724c-0.912-0.688-1.926-0.961-3.041-0.82c-1.111,0.142-2.026,0.658-2.739,1.55
		c-0.714,0.887-0.997,1.916-0.853,3.075c0.146,1.16,0.678,2.084,1.59,2.773c0.911,0.688,1.926,0.959,3.039,0.818
		c1.113-0.14,2.028-0.656,2.742-1.547c0.714-0.894,0.992-1.918,0.846-3.082C71.479,68.333,70.953,67.406,70.039,66.724z"/>
	<path display="inline" fill="#00A4E4" d="M88.701,0H10.74C4.809,0,0,4.809,0,10.74v77.961c0,5.932,4.81,10.739,10.74,10.739h77.961
		c5.932,0,10.74-4.809,10.74-10.739V10.74C99.441,4.809,94.633,0,88.701,0z M77.521,66.869c0.789,6.26-2.817,11.871-8.057,12.53
		c0,0-4.884,0.111-7.534,0.185c-3.562,0.098-12.719,1.146-15.995,2.018c-3.263,0.818-8.934,1.892-8.934,1.892
		c-5.236,0.659-10.123-3.882-10.911-10.142L25.101,53.37c-3.795-2.746-7.209-6.783-7.822-11.648
		c-1.219-9.668,6.107-18.553,16.363-19.846c4.534-0.572,8.876,0.436,12.421,2.569c2.899-2.926,6.843-4.963,11.353-5.53
		c10.258-1.295,19.562,5.496,20.779,15.166c0.611,4.854-1.687,9.606-4.672,13.205L77.521,66.869z"/>
</g>
</svg>
